<svg xmlns="http://www.w3.org/2000/svg" viewBox="0 0 1000 610" width="1000" height="610" role="img" aria-labelledby="t d"><title id="t">Projects as systems</title><desc id="d">Four builds drawn as boundaries and data flow: Kestrel AI, awesome-Modern-SE-Algorithms, AnimeBill, and the Tata Capital agent.</desc><defs><pattern id="dots" width="20" height="20" patternUnits="userSpaceOnUse"><circle cx="1" cy="1" r=".8" fill="#18212C"/></pattern><marker id="ar" viewBox="0 0 10 10" refX="8" refY="5" markerWidth="7" markerHeight="7" orient="auto"><path d="M0 0L10 5L0 10z" fill="#5B8CFF"/></marker><marker id="ard" viewBox="0 0 10 10" refX="8" refY="5" markerWidth="7" markerHeight="7" orient="auto"><path d="M0 0L10 5L0 10z" fill="#6B7A8C"/></marker><marker id="ara" viewBox="0 0 10 10" refX="8" refY="5" markerWidth="7" markerHeight="7" orient="auto"><path d="M0 0L10 5L0 10z" fill="#FFB347"/></marker></defs><style>.m{font-family:ui-monospace,SFMono-Regular,Menlo,Consolas,'Liberation Mono',monospace;font-size:11px;fill:#6B7A8C}.mi{font-family:ui-monospace,SFMono-Regular,Menlo,Consolas,'Liberation Mono',monospace;font-size:12px;fill:#E8ECF1}.ma{font-family:ui-monospace,SFMono-Regular,Menlo,Consolas,'Liberation Mono',monospace;font-size:10.5px;fill:#FFB347}.s{font-family:'Helvetica Neue',Helvetica,Arial,'Segoe UI',sans-serif;font-weight:700;fill:#E8ECF1}.f{font-family:Georgia,'Times New Roman',serif;font-style:italic;fill:#E8ECF1}</style><rect width="1000" height="610" fill="#090D12"/><rect width="1000" height="610" fill="url(#dots)"/><rect x=".5" y=".5" width="999" height="609" fill="none" stroke="#1B2430"/><path d="M10 2H22M2 10V22" stroke="#6B7A8C" fill="none"/><path d="M990 2H978M998 10V22" stroke="#6B7A8C" fill="none"/><path d="M10 608H22M2 600V588" stroke="#6B7A8C" fill="none"/><path d="M990 608H978M998 600V588" stroke="#6B7A8C" fill="none"/><text x="30" y="34" class="m" fill="#5B8CFF" style="fill:#5B8CFF">04 / builds</text><text x="970" y="34" class="m" text-anchor="end">system boundary → evidence</text><text x="40" y="94" class="m" >b1</text><text x="70" y="96" class="s" text-anchor="start" font-size="20">Kestrel AI</text><text x="70" y="122" class="m" >next.js · node.js · openai api</text><text x="70" y="139" class="m" >rest · vercel</text><rect x="335" y="92" width="360" height="74" rx="2" fill="none" stroke="#2A3849" stroke-dasharray="4 4"/><text x="343" y="180" class="m" >vercel · serverless</text><rect x="345.0" y="108" width="97.33333333333333" height="36" rx="2" fill="#0C1218" stroke="#5B8CFF"/><text x="393.6666666666667" y="130" class="mi" text-anchor="middle" font-size="10">next.js ui</text><path d="M445.3333333333333 126H463.3333333333333" stroke="#5B8CFF" marker-end="url(#ar)"/><rect x="466.3333333333333" y="108" width="97.33333333333333" height="36" rx="2" fill="#0C1218" stroke="#5B8CFF"/><text x="515.0" y="130" class="mi" text-anchor="middle" font-size="10">rest · node</text><path d="M566.6666666666666 126H584.6666666666666" stroke="#5B8CFF" marker-end="url(#ar)"/><rect x="587.6666666666666" y="108" width="97.33333333333333" height="36" rx="2" fill="#0C1218" stroke="#5B8CFF"/><text x="636.3333333333333" y="130" class="mi" text-anchor="middle" font-size="10">openai api</text><circle r="3" fill="#FFB347"><animateMotion path="M345 126H685" dur="3.5s" begin="0.0s" repeatCount="indefinite"/></circle><text x="720" y="110" class="mi" >hack secure · 3rd place</text><text x="720" y="128" class="m" >real-time detection logic</text><text x="720" y="146" class="ma" >↳ KESTERAL-AI-Threat-Analyzer</text><path d="M30 186H970" stroke="#1B2430"/><text x="40" y="230" class="m" >b2</text><text x="70" y="232" class="s" text-anchor="start" font-size="13.5">awesome-Modern-SE-Algorithms</text><text x="70" y="258" class="m" >c++ · java · git</text><text x="70" y="275" class="m" >github actions · unit tests</text><rect x="335" y="228" width="360" height="74" rx="2" fill="none" stroke="#2A3849" stroke-dasharray="4 4"/><text x="343" y="316" class="m" >github</text><rect x="345.0" y="244" width="67.0" height="36" rx="2" fill="#0C1218" stroke="#5B8CFF"/><text x="378.5" y="266" class="mi" text-anchor="middle" font-size="10">patterns</text><path d="M415.0 262H433.0" stroke="#5B8CFF" marker-end="url(#ar)"/><rect x="436.0" y="244" width="67.0" height="36" rx="2" fill="#0C1218" stroke="#5B8CFF"/><text x="469.5" y="266" class="mi" text-anchor="middle" font-size="10">git</text><path d="M506.0 262H524.0" stroke="#5B8CFF" marker-end="url(#ar)"/><rect x="527.0" y="244" width="67.0" height="36" rx="2" fill="#0C1218" stroke="#5B8CFF"/><text x="560.5" y="266" class="mi" text-anchor="middle" font-size="10">ci matrix</text><path d="M597.0 262H615.0" stroke="#5B8CFF" marker-end="url(#ar)"/><rect x="618.0" y="244" width="67.0" height="36" rx="2" fill="#0C1218" stroke="#5B8CFF"/><text x="651.5" y="266" class="mi" text-anchor="middle" font-size="10">tests ×5</text><circle r="3" fill="#FFB347"><animateMotion path="M345 262H685" dur="3.9s" begin="0.5s" repeatCount="indefinite"/></circle><text x="720" y="246" class="mi" >150+ patterns · 5-language ci</text><text x="720" y="264" class="m" >regressions caught on push</text><text x="720" y="282" class="ma" >↳ awesome-Modern-SE-Algorithms</text><path d="M30 322H970" stroke="#1B2430"/><text x="40" y="366" class="m" >b3</text><text x="70" y="368" class="s" text-anchor="start" font-size="20">AnimeBill</text><text x="70" y="394" class="m" >html5 · css3 · vanilla js</text><text x="70" y="411" class="m" >sql</text><rect x="345.0" y="380" width="97.33333333333333" height="36" rx="2" fill="#0C1218" stroke="#5B8CFF"/><text x="393.6666666666667" y="402" class="mi" text-anchor="middle" font-size="10">html/css/js</text><path d="M445.3333333333333 398H463.3333333333333" stroke="#5B8CFF" marker-end="url(#ar)"/><rect x="466.3333333333333" y="380" width="97.33333333333333" height="36" rx="2" fill="#0C1218" stroke="#5B8CFF"/><text x="515.0" y="402" class="mi" text-anchor="middle" font-size="10">app layer</text><path d="M566.6666666666666 398H584.6666666666666" stroke="#5B8CFF" marker-end="url(#ar)"/><rect x="587.6666666666666" y="380" width="97.33333333333333" height="36" rx="2" fill="#0C1218" stroke="#5B8CFF"/><text x="636.3333333333333" y="402" class="mi" text-anchor="middle" font-size="10">sql schema</text><circle r="3" fill="#FFB347"><animateMotion path="M345 398H685" dur="4.3s" begin="1.0s" repeatCount="indefinite"/></circle><text x="720" y="382" class="mi" >schema → queries → working app</text><text x="720" y="400" class="m" >anime-themed billing ui</text><text x="720" y="418" class="ma" ></text><path d="M30 458H970" stroke="#1B2430"/><text x="40" y="502" class="m" >b4</text><text x="70" y="504" class="s" text-anchor="start" font-size="20">Tata Capital agent</text><text x="70" y="530" class="m" >nlp · chatbot</text><text x="70" y="547" class="m" >agentic assistant</text><rect x="345.0" y="516" width="97.33333333333333" height="36" rx="2" fill="#0C1218" stroke="#5B8CFF"/><text x="393.6666666666667" y="538" class="mi" text-anchor="middle" font-size="10">query</text><path d="M445.3333333333333 534H463.3333333333333" stroke="#5B8CFF" marker-end="url(#ar)"/><rect x="466.3333333333333" y="516" width="97.33333333333333" height="36" rx="2" fill="#0C1218" stroke="#5B8CFF"/><text x="515.0" y="538" class="mi" text-anchor="middle" font-size="10">nlp agent</text><path d="M566.6666666666666 534H584.6666666666666" stroke="#5B8CFF" marker-end="url(#ar)"/><rect x="587.6666666666666" y="516" width="97.33333333333333" height="36" rx="2" fill="#0C1218" stroke="#5B8CFF"/><text x="636.3333333333333" y="538" class="mi" text-anchor="middle" font-size="10">answer</text><circle r="3" fill="#FFB347"><animateMotion path="M345 534H685" dur="4.7s" begin="1.5s" repeatCount="indefinite"/></circle><text x="720" y="518" class="mi" >ey hackathon · finalist</text><text x="720" y="536" class="m" >built for tata capital</text><text x="720" y="554" class="ma" ></text></svg>
