<svg xmlns="http://www.w3.org/2000/svg" viewBox="0 0 1000 450" width="1000" height="450" role="img" aria-labelledby="t d"><title id="t">Prasoon Mishra — signal</title><desc id="d">Animated boot sequence revealing the name Prasoon Mishra beside orbital rings labelled core, systems and worlds.</desc><defs><pattern id="dots" width="20" height="20" patternUnits="userSpaceOnUse"><circle cx="1" cy="1" r=".8" fill="#18212C"/></pattern><marker id="ar" viewBox="0 0 10 10" refX="8" refY="5" markerWidth="7" markerHeight="7" orient="auto"><path d="M0 0L10 5L0 10z" fill="#5B8CFF"/></marker><marker id="ard" viewBox="0 0 10 10" refX="8" refY="5" markerWidth="7" markerHeight="7" orient="auto"><path d="M0 0L10 5L0 10z" fill="#6B7A8C"/></marker><marker id="ara" viewBox="0 0 10 10" refX="8" refY="5" markerWidth="7" markerHeight="7" orient="auto"><path d="M0 0L10 5L0 10z" fill="#FFB347"/></marker></defs><style>.m{font-family:ui-monospace,SFMono-Regular,Menlo,Consolas,'Liberation Mono',monospace;font-size:11px;fill:#6B7A8C}.mi{font-family:ui-monospace,SFMono-Regular,Menlo,Consolas,'Liberation Mono',monospace;font-size:12px;fill:#E8ECF1}.ma{font-family:ui-monospace,SFMono-Regular,Menlo,Consolas,'Liberation Mono',monospace;font-size:10.5px;fill:#FFB347}.s{font-family:'Helvetica Neue',Helvetica,Arial,'Segoe UI',sans-serif;font-weight:700;fill:#E8ECF1}.f{font-family:Georgia,'Times New Roman',serif;font-style:italic;fill:#E8ECF1}</style><rect width="1000" height="450" fill="#090D12"/><rect width="1000" height="450" fill="url(#dots)"/><rect x=".5" y=".5" width="999" height="449" fill="none" stroke="#1B2430"/><path d="M10 2H22M2 10V22" stroke="#6B7A8C" fill="none"/><path d="M990 2H978M998 10V22" stroke="#6B7A8C" fill="none"/><path d="M10 448H22M2 440V428" stroke="#6B7A8C" fill="none"/><path d="M990 448H978M998 440V428" stroke="#6B7A8C" fill="none"/><text x="30" y="34" class="m" fill="#5B8CFF" style="fill:#5B8CFF">00 / signal</text><text x="970" y="34" class="m" text-anchor="end">26.8467°N 80.9462°E</text><clipPath id="c1"><rect x="40" y="58" width="180.0" height="20"><animate attributeName="width" values="7.2;14.4;21.6;28.8;36.0;43.2;50.4;57.6;64.8;72.0;79.2;86.4;93.6;100.8;108.0;115.2;122.4;129.6;136.8;144.0;151.2;158.4;165.6;172.8;180.0" dur="0.55s" calcMode="discrete" fill="freeze"/></rect></clipPath><text x="40" y="72" font-family="ui-monospace,SFMono-Regular,Menlo,Consolas,'Liberation Mono',monospace" font-size="12" fill="#FFB347" textLength="180.0" lengthAdjust="spacing" clip-path="url(#c1)">$ boot --identity prasoon</text><clipPath id="c2"><rect x="40" y="79" width="374.4" height="20"><animate attributeName="width" values="0;0;0;0;0;0;0;0;0;0;0;0;0;0;0;0;0;0;0;0;0;0;0;0;0;0;0;0;0;0;0;7.2;14.4;21.6;28.8;36.0;43.2;50.4;57.6;64.8;72.0;79.2;86.4;93.6;100.8;108.0;115.2;122.4;129.6;136.8;144.0;151.2;158.4;165.6;172.8;180.0;187.2;194.4;201.6;208.8;216.0;223.2;230.4;237.6;244.8;252.0;259.2;266.4;273.6;280.8;288.0;295.2;302.4;309.6;316.8;324.0;331.2;338.4;345.6;352.8;360.0;367.2;374.4" dur="1.83s" calcMode="discrete" fill="freeze"/></rect></clipPath><text x="40" y="93" font-family="ui-monospace,SFMono-Regular,Menlo,Consolas,'Liberation Mono',monospace" font-size="12" fill="#6B7A8C" textLength="374.4" lengthAdjust="spacing" clip-path="url(#c2)">mount /dsa /os /architecture /worlds ............ ok</text><clipPath id="c3"><rect x="40" y="100" width="338.4" height="20"><animate attributeName="width" values="0;0;0;0;0;0;0;0;0;0;0;0;0;0;0;0;0;0;0;0;0;0;0;0;0;0;0;0;0;0;0;0;0;0;0;0;0;0;0;0;0;0;0;0;0;0;0;0;0;0;0;0;0;0;0;0;0;0;0;0;0;0;0;0;0;0;0;0;0;0;0;0;0;0;0;0;0;0;0;0;0;0;0;0;0;0;0;0;0;0;0;0;0;0;0;0;0;0;0;0;0;0;0;0;0;0;0;0;0;0;0;0;0;0;0;0;0;0;0;0;7.2;14.4;21.6;28.8;36.0;43.2;50.4;57.6;64.8;72.0;79.2;86.4;93.6;100.8;108.0;115.2;122.4;129.6;136.8;144.0;151.2;158.4;165.6;172.8;180.0;187.2;194.4;201.6;208.8;216.0;223.2;230.4;237.6;244.8;252.0;259.2;266.4;273.6;280.8;288.0;295.2;302.4;309.6;316.8;324.0;331.2;338.4" dur="3.67s" calcMode="discrete" fill="freeze"/></rect></clipPath><text x="40" y="114" font-family="ui-monospace,SFMono-Regular,Menlo,Consolas,'Liberation Mono',monospace" font-size="12" fill="#6B7A8C" textLength="338.4" lengthAdjust="spacing" clip-path="url(#c3)">load pattern_library[150+] ........... verified</text><clipPath id="c4"><rect x="40" y="121" width="115.2" height="20"><animate attributeName="width" values="0;0;0;0;0;0;0;0;0;0;0;0;0;0;0;0;0;0;0;0;0;0;0;0;0;0;0;0;0;0;0;0;0;0;0;0;0;0;0;0;0;0;0;0;0;0;0;0;0;0;0;0;0;0;0;0;0;0;0;0;0;0;0;0;0;0;0;0;0;0;0;0;0;0;0;0;0;0;0;0;0;0;0;0;0;0;0;0;0;0;0;0;0;0;0;0;0;0;0;0;0;0;0;0;0;0;0;0;0;0;0;0;0;0;0;0;0;0;0;0;0;0;0;0;0;0;0;0;0;0;0;0;0;0;0;0;0;0;0;0;0;0;0;0;0;0;0;0;0;0;0;0;0;0;0;0;0;0;0;0;0;0;0;0;0;0;0;0;0;0;0;0;0;0;0;0;0;0;0;0;0;0;0;0;0;0;0;0;0;0;0;0;0;0;0;0;0;0;0;0;0;0;0;0;0;0;0;0;0;0;0;0;0;0;0;0;0;0;0;0;0;0;0;0;0;0;0;0;0;0;0;0;0;0;0;0;0;0;0;0;0;0;0;0;0;0;0;0;0;0;0;0;0;0;0;0;0;0;0;0;0;0;0;0;0;0;0;0;0;0;0;0;0;0;0;0;0;0;0;0;0;0;0;0;0;0;0;0;0;0;0;0;0;7.2;14.4;21.6;28.8;36.0;43.2;50.4;57.6;64.8;72.0;79.2;86.4;93.6;100.8;108.0;115.2" dur="6.8s" calcMode="discrete" fill="freeze"/></rect></clipPath><text x="40" y="135" font-family="ui-monospace,SFMono-Regular,Menlo,Consolas,'Liberation Mono',monospace" font-size="12" fill="#E8ECF1" textLength="115.2" lengthAdjust="spacing" clip-path="url(#c4)">signal: building</text><rect x="159.2" y="124" width="7" height="13" fill="#FFB347" opacity="0"><animate attributeName="opacity" values="1;0" dur="1s" begin="13.38s" repeatCount="indefinite"/></rect><clipPath id="n1"><rect x="40" y="120" width="630" height="140"><animate attributeName="width" values="0;0;630" keyTimes="0;0.749;1" dur="15.18s" fill="freeze"/></rect></clipPath><text x="40" y="240" font-family="'Helvetica Neue',Helvetica,Arial,'Segoe UI',sans-serif" font-weight="800" font-size="106" textLength="570" lengthAdjust="spacingAndGlyphs" fill="#E8ECF1" clip-path="url(#n1)">PRASOON</text><clipPath id="n2"><rect x="40" y="232" width="550" height="140"><animate attributeName="width" values="0;0;550" keyTimes="0;0.756;1" dur="15.58s" fill="freeze"/></rect></clipPath><text x="40" y="352" font-family="'Helvetica Neue',Helvetica,Arial,'Segoe UI',sans-serif" font-weight="800" font-size="106" textLength="490" lengthAdjust="spacingAndGlyphs" fill="none" stroke="#E8ECF1" stroke-width="1.6" clip-path="url(#n2)">MISHRA</text><text x="40" y="396" class="f" font-size="22">I build the rules that worlds run on.</text><text x="40" y="422" class="m" text-anchor="start" xml:space="preserve">status: building   domain: algorithms → systems → worlds   since: 2024.09</text><path d="M640 225H990M815 50V400" stroke="#1B2430"/><g><path d="M955.0 225.0L945.0 225.0M954.5 237.2L949.5 236.8M952.9 249.3L947.9 248.4M950.2 261.2L945.4 259.9M946.6 272.9L941.9 271.2M941.9 284.2L937.4 282.1M936.2 295.0L927.6 290.0M929.7 305.3L925.6 302.4M922.2 315.0L918.4 311.8M914.0 324.0L910.5 320.5M905.0 332.2L901.8 328.4M895.3 339.7L892.4 335.6M885.0 346.2L880.0 337.6M874.2 351.9L872.1 347.4M862.9 356.6L861.2 351.9M851.2 360.2L849.9 355.4M839.3 362.9L838.4 357.9M827.2 364.5L826.8 359.5M815.0 365.0L815.0 355.0M802.8 364.5L803.2 359.5M790.7 362.9L791.6 357.9M778.8 360.2L780.1 355.4M767.1 356.6L768.8 351.9M755.8 351.9L757.9 347.4M745.0 346.2L750.0 337.6M734.7 339.7L737.6 335.6M725.0 332.2L728.2 328.4M716.0 324.0L719.5 320.5M707.8 315.0L711.6 311.8M700.3 305.3L704.4 302.4M693.8 295.0L702.4 290.0M688.1 284.2L692.6 282.1M683.4 272.9L688.1 271.2M679.8 261.2L684.6 259.9M677.1 249.3L682.1 248.4M675.5 237.2L680.5 236.8M675.0 225.0L685.0 225.0M675.5 212.8L680.5 213.2M677.1 200.7L682.1 201.6M679.8 188.8L684.6 190.1M683.4 177.1L688.1 178.8M688.1 165.8L692.6 167.9M693.8 155.0L702.4 160.0M700.3 144.7L704.4 147.6M707.8 135.0L711.6 138.2M716.0 126.0L719.5 129.5M725.0 117.8L728.2 121.6M734.7 110.3L737.6 114.4M745.0 103.8L750.0 112.4M755.8 98.1L757.9 102.6M767.1 93.4L768.8 98.1M778.8 89.8L780.1 94.6M790.7 87.1L791.6 92.1M802.8 85.5L803.2 90.5M815.0 85.0L815.0 95.0M827.2 85.5L826.8 90.5M839.3 87.1L838.4 92.1M851.2 89.8L849.9 94.6M862.9 93.4L861.2 98.1M874.2 98.1L872.1 102.6M885.0 103.8L880.0 112.4M895.3 110.3L892.4 114.4M905.0 117.8L901.8 121.6M914.0 126.0L910.5 129.5M922.2 135.0L918.4 138.2M929.7 144.7L925.6 147.6M936.2 155.0L927.6 160.0M941.9 165.8L937.4 167.9M946.6 177.1L941.9 178.8M950.2 188.8L945.4 190.1M952.9 200.7L947.9 201.6M954.5 212.8L949.5 213.2" stroke="#6B7A8C" fill="none"/><animateTransform attributeName="transform" type="rotate" from="0 815 225" to="360 815 225" dur="90s" repeatCount="indefinite"/></g><circle cx="815" cy="225" r="100" fill="none" stroke="#2A3849" stroke-dasharray="2 6"><animateTransform attributeName="transform" type="rotate" from="360 815 225" to="0 815 225" dur="60s" repeatCount="indefinite"/></circle><circle cx="815" cy="225" r="60" fill="none" stroke="#5B8CFF" stroke-opacity=".6"/><rect x="801" y="211" width="28" height="28" fill="none" stroke="#FFB347"><animateTransform attributeName="transform" type="rotate" from="0 815 225" to="90 815 225" dur="6s" repeatCount="indefinite"/></rect><circle cx="815" cy="225" r="3" fill="#FFB347"/><circle r="3.5" fill="#5B8CFF"><animateMotion path="M875 225a60 60 0 1 1 -120 0a60 60 0 1 1 120 0" dur="9s" begin="0s" repeatCount="indefinite"/></circle><circle r="3.5" fill="#E8ECF1"><animateMotion path="M915 225a100 100 0 1 1 -200 0a100 100 0 1 1 200 0" dur="16s" begin="0s" repeatCount="indefinite"/></circle><circle r="3.5" fill="#FFB347"><animateMotion path="M955 225a140 140 0 1 1 -280 0a140 140 0 1 1 280 0" dur="26s" begin="0s" repeatCount="indefinite"/></circle><text x="815" y="161" class="m" text-anchor="middle" >core · dsa os arch</text><text x="815" y="121" class="m" text-anchor="middle" >systems · ci/cd api cloud</text><text x="815" y="81" class="m" text-anchor="middle" >worlds · unity unreal blender</text><rect x="0" y="0" width="1000" height="2" fill="#5B8CFF" opacity=".22"><animateTransform attributeName="transform" type="translate" values="0 0;0 450" dur="7s" repeatCount="indefinite"/></rect><text x="970" y="436" class="m" text-anchor="end">signal received<tspan fill="#FFB347"> ▮</tspan><animate attributeName="opacity" values="1;.35;1" dur="2.4s" repeatCount="indefinite"/></text></svg>
