<svg xmlns="http://www.w3.org/2000/svg" viewBox="0 0 1000 520" width="1000" height="520" role="img" aria-labelledby="t d"><title id="t">Skill network</title><desc id="d">Technologies as a graph. Solid outlines are used in a shipped project; dashed outlines are declared skills. Edges name the relationship.</desc><defs><pattern id="dots" width="20" height="20" patternUnits="userSpaceOnUse"><circle cx="1" cy="1" r=".8" fill="#18212C"/></pattern><marker id="ar" viewBox="0 0 10 10" refX="8" refY="5" markerWidth="7" markerHeight="7" orient="auto"><path d="M0 0L10 5L0 10z" fill="#5B8CFF"/></marker><marker id="ard" viewBox="0 0 10 10" refX="8" refY="5" markerWidth="7" markerHeight="7" orient="auto"><path d="M0 0L10 5L0 10z" fill="#6B7A8C"/></marker><marker id="ara" viewBox="0 0 10 10" refX="8" refY="5" markerWidth="7" markerHeight="7" orient="auto"><path d="M0 0L10 5L0 10z" fill="#FFB347"/></marker></defs><style>.m{font-family:ui-monospace,SFMono-Regular,Menlo,Consolas,'Liberation Mono',monospace;font-size:11px;fill:#6B7A8C}.mi{font-family:ui-monospace,SFMono-Regular,Menlo,Consolas,'Liberation Mono',monospace;font-size:12px;fill:#E8ECF1}.ma{font-family:ui-monospace,SFMono-Regular,Menlo,Consolas,'Liberation Mono',monospace;font-size:10.5px;fill:#FFB347}.s{font-family:'Helvetica Neue',Helvetica,Arial,'Segoe UI',sans-serif;font-weight:700;fill:#E8ECF1}.f{font-family:Georgia,'Times New Roman',serif;font-style:italic;fill:#E8ECF1}</style><rect width="1000" height="520" fill="#090D12"/><rect width="1000" height="520" fill="url(#dots)"/><rect x=".5" y=".5" width="999" height="519" fill="none" stroke="#1B2430"/><path d="M10 2H22M2 10V22" stroke="#6B7A8C" fill="none"/><path d="M990 2H978M998 10V22" stroke="#6B7A8C" fill="none"/><path d="M10 518H22M2 510V498" stroke="#6B7A8C" fill="none"/><path d="M990 518H978M998 510V498" stroke="#6B7A8C" fill="none"/><text x="30" y="34" class="m" fill="#5B8CFF" style="fill:#5B8CFF">03 / network</text><text x="970" y="34" class="m" text-anchor="end">technology → role → relationship</text><path d="M110 150L250 210" stroke="#2A3849"/><text x="180.0" y="174.0" class="ma" text-anchor="middle" >scripting</text><path d="M110 270L370 270" stroke="#2A3849"/><text x="240.0" y="264.0" class="ma" text-anchor="middle" >engine code</text><path d="M200 350L110 150" stroke="#2A3849"/><text x="155.0" y="244.0" class="ma" text-anchor="middle" >assets</text><path d="M200 350L110 270" stroke="#2A3849"/><path d="M540 130L370 120" stroke="#2A3849"/><text x="455.0" y="119.0" class="ma" text-anchor="middle" >ci</text><path d="M540 130L370 270" stroke="#2A3849"/><text x="455.0" y="194.0" class="ma" text-anchor="middle" >ci</text><path d="M540 270L540 130" stroke="#2A3849"/><path d="M700 300L700 170" stroke="#2A3849"/><path d="M700 170L820 110" stroke="#2A3849"/><path d="M820 110L935 190" stroke="#2A3849"/><path d="M820 110L820 400" stroke="#2A3849"/><text x="820.0" y="249.0" class="ma" text-anchor="middle" >deploy</text><path d="M700 170L925 300" stroke="#2A3849"/><text x="812.5" y="229.0" class="ma" text-anchor="middle" >rest</text><path d="M540 400L700 300" stroke="#2A3849"/><text x="620.0" y="344.0" class="ma" text-anchor="middle" >billing</text><path d="M680 455L820 400" stroke="#2A3849"/><text x="750.0" y="421.5" class="ma" text-anchor="middle" >cloud</text><path d="M290 425L370 270" stroke="#2A3849" stroke-dasharray="3 5"/><path d="M290 425L370 120" stroke="#2A3849" stroke-dasharray="3 5"/><circle r="3" fill="#FFB347"><animateMotion path="M820 110L700 170" dur="5s" begin="0s" repeatCount="indefinite"/></circle><circle r="3" fill="#FFB347"><animateMotion path="M700 170L925 300" dur="6s" begin="0s" repeatCount="indefinite"/></circle><circle r="3" fill="#FFB347"><animateMotion path="M540 130L370 120" dur="5s" begin="0s" repeatCount="indefinite"/></circle><rect x="80.5" y="136" width="59" height="28" rx="14" fill="#090D12" stroke="#6B7A8C" stroke-dasharray="3 3"/><text x="110" y="154" class="mi" text-anchor="middle" font-size="12" style="fill:#6B7A8C">Unity</text><rect x="77.0" y="256" width="66" height="28" rx="14" fill="#090D12" stroke="#6B7A8C" stroke-dasharray="3 3"/><text x="110" y="274" class="mi" text-anchor="middle" font-size="12" style="fill:#6B7A8C">Unreal</text><rect x="163.5" y="336" width="73" height="28" rx="14" fill="#090D12" stroke="#6B7A8C" stroke-dasharray="3 3"/><text x="200" y="354" class="mi" text-anchor="middle" font-size="12" style="fill:#6B7A8C">Blender</text><rect x="231.0" y="196" width="38" height="28" rx="14" fill="#090D12" stroke="#6B7A8C" stroke-dasharray="3 3"/><text x="250" y="214" class="mi" text-anchor="middle" font-size="12" style="fill:#6B7A8C">C#</text><rect x="347.5" y="256" width="45" height="28" rx="14" fill="#10213F" stroke="#5B8CFF"/><text x="370" y="274" class="mi" text-anchor="middle" font-size="12">C++</text><rect x="344.0" y="106" width="52" height="28" rx="14" fill="#10213F" stroke="#5B8CFF"/><text x="370" y="124" class="mi" text-anchor="middle" font-size="12">Java</text><rect x="257.0" y="411" width="66" height="28" rx="14" fill="#090D12" stroke="#6B7A8C" stroke-dasharray="3 3"/><text x="290" y="429" class="mi" text-anchor="middle" font-size="12" style="fill:#6B7A8C">Python</text><rect x="517.5" y="256" width="45" height="28" rx="14" fill="#10213F" stroke="#5B8CFF"/><text x="540" y="274" class="mi" text-anchor="middle" font-size="12">Git</text><rect x="479.0" y="116" width="122" height="28" rx="14" fill="#10213F" stroke="#5B8CFF"/><text x="540" y="134" class="mi" text-anchor="middle" font-size="12">GitHub Actions</text><rect x="517.5" y="386" width="45" height="28" rx="14" fill="#10213F" stroke="#5B8CFF"/><text x="540" y="404" class="mi" text-anchor="middle" font-size="12">SQL</text><rect x="653.0" y="286" width="94" height="28" rx="14" fill="#10213F" stroke="#5B8CFF"/><text x="700" y="304" class="mi" text-anchor="middle" font-size="12">JavaScript</text><rect x="663.5" y="156" width="73" height="28" rx="14" fill="#10213F" stroke="#5B8CFF"/><text x="700" y="174" class="mi" text-anchor="middle" font-size="12">Node.js</text><rect x="783.5" y="96" width="73" height="28" rx="14" fill="#10213F" stroke="#5B8CFF"/><text x="820" y="114" class="mi" text-anchor="middle" font-size="12">Next.js</text><rect x="905.5" y="176" width="59" height="28" rx="14" fill="#090D12" stroke="#6B7A8C" stroke-dasharray="3 3"/><text x="935" y="194" class="mi" text-anchor="middle" font-size="12" style="fill:#6B7A8C">React</text><rect x="878.0" y="286" width="94" height="28" rx="14" fill="#10213F" stroke="#5B8CFF"/><text x="925" y="304" class="mi" text-anchor="middle" font-size="12">OpenAI API</text><rect x="787.0" y="386" width="66" height="28" rx="14" fill="#10213F" stroke="#5B8CFF"/><text x="820" y="404" class="mi" text-anchor="middle" font-size="12">Vercel</text><rect x="657.5" y="441" width="45" height="28" rx="14" fill="#090D12" stroke="#6B7A8C" stroke-dasharray="3 3"/><text x="680" y="459" class="mi" text-anchor="middle" font-size="12" style="fill:#6B7A8C">AWS</text><text x="110" y="490" class="f" text-anchor="middle" font-size="16" style="fill:#6B7A8C">worlds</text><text x="450" y="490" class="f" text-anchor="middle" font-size="16" style="fill:#6B7A8C">core</text><text x="790" y="490" class="f" text-anchor="middle" font-size="16" style="fill:#6B7A8C">web + cloud</text><rect x="640" y="52" width="26" height="14" rx="7" fill="#10213F" stroke="#5B8CFF"/><text x="674" y="63" class="m" >used in a shipped project</text><rect x="640" y="72" width="26" height="14" rx="7" fill="none" stroke="#6B7A8C" stroke-dasharray="3 3"/><text x="674" y="83" class="m" >declared skill / in progress</text></svg>
